<svg viewBox="0 0 20 20" fill="none" xmlns="http://www.w3.org/2000/svg">
<path d="M14.4997 4.86489C14.8573 4.50734 15.3054 4.29558 15.7702 4.22957ZM15.7702 4.22957C16.4455 4.13368 17.1561 4.34545 17.6755 4.86489C18.5525 5.74187 18.5525 7.16373 17.6755 8.04071C16.969 8.74734 15.9086 8.88459 15.0645 8.4525C14.7195 8.27594 14.2775 8.26287 14.0035 8.53692L8.53704 14.0034C8.26299 14.2774 8.27606 14.7194 8.45262 15.0644C8.88471 15.9085 8.74746 16.9688 8.04082 17.6754C7.16385 18.5524 5.74199 18.5524 4.86501 17.6754C4.34557 17.156 4.1338 16.4454 4.22969 15.7701M15.7702 4.22957C15.8661 3.55426 15.6544 2.84368 15.1349 2.32424C14.258 1.44726 12.836 1.44726 11.9591 2.32424C11.2525 3.03084 11.1152 4.09118 11.5473 4.93523C11.7239 5.28022 11.737 5.72222 11.4629 5.99627L5.99639 11.4628C5.72234 11.7368 5.28034 11.7238 4.93535 11.5472C4.0913 11.1151 3.03096 11.2523 2.32436 11.959C1.44738 12.8359 1.44738 14.2578 2.32436 15.1348C2.84379 15.6543 3.55439 15.866 4.22969 15.7701M5.50017 15.1348C5.14263 15.4923 4.69452 15.7041 4.22969 15.7701Z" fill="currentColor"/>
</svg>
