<svg  viewBox="0 0 20 20" fill="none" xmlns="http://www.w3.org/2000/svg">
<path d="M7.61185 2.0835C5.38996 2.13412 4.09217 2.34563 3.20545 3.22927C2.42939 4.00264 2.16997 5.0898 2.08325 6.8335M12.388 2.0835C14.6099 2.13412 15.9077 2.34563 16.7944 3.22927C17.5704 4.00264 17.8298 5.0898 17.9166 6.8335M12.388 17.9168C14.6099 17.8662 15.9077 17.6547 16.7944 16.7711C17.5704 15.9977 17.8298 14.9105 17.9166 13.1668M7.61185 17.9168C5.38996 17.8662 4.09217 17.6547 3.20545 16.7711C2.42939 15.9977 2.16997 14.9105 2.08325 13.1668" stroke="currentColor" stroke-width="1.25" stroke-linecap="round" stroke-linejoin="round"/>
<path d="M13.3334 9.99984C13.3334 11.8408 11.841 13.3332 10.0001 13.3332C8.15913 13.3332 6.66675 11.8408 6.66675 9.99984C6.66675 8.15889 8.15913 6.6665 10.0001 6.6665C11.841 6.6665 13.3334 8.15889 13.3334 9.99984Z" fill="currentColor" stroke="currentColor" stroke-width="1.25" stroke-linecap="round" stroke-linejoin="round"/>
</svg>
