<svg viewBox="0 0 20 20" fill="none" xmlns="http://www.w3.org/2000/svg">
<path d="M10.0003 1.6665C5.41699 1.6665 1.66699 5.4165 1.66699 9.99984C1.66699 14.5832 5.41699 18.3332 10.0003 18.3332C14.5837 18.3332 18.3337 14.5832 18.3337 9.99984C18.3337 5.4165 14.5837 1.6665 10.0003 1.6665ZM10.8337 13.3332C10.8337 13.8332 10.5003 14.1665 10.0003 14.1665C9.50033 14.1665 9.16699 13.8332 9.16699 13.3332V9.99984C9.16699 9.49984 9.50033 9.1665 10.0003 9.1665C10.5003 9.1665 10.8337 9.49984 10.8337 9.99984V13.3332ZM10.0003 7.49984C9.50033 7.49984 9.16699 7.1665 9.16699 6.6665C9.16699 6.1665 9.50033 5.83317 10.0003 5.83317C10.5003 5.83317 10.8337 6.1665 10.8337 6.6665C10.8337 7.1665 10.5003 7.49984 10.0003 7.49984Z" fill="currentColor"/>
</svg>
