<svg viewBox="0 0 24 24" fill="none" xmlns="http://www.w3.org/2000/svg" id="Check-Circle--Streamline-Iconoir">
  <desc>
    Check Circle Streamline Icon: https://streamlinehq.com
  </desc>
  <path fill-rule="evenodd" clip-rule="evenodd" d="M12 1.25C6.06294 1.25 1.25 6.06294 1.25 12c0 5.9371 4.81294 10.75 10.75 10.75 5.9371 0 10.75 -4.8129 10.75 -10.75 0 -5.93706 -4.8129 -10.75 -10.75 -10.75ZM7.53044 11.9697c-0.29289 -0.2929 -0.76776 -0.2929 -1.06066 0 -0.29289 0.2929 -0.29289 0.7677 0 1.0606l3 3c0.2929 0.2929 0.76782 0.2929 1.06062 0l7 -6.99997c0.2929 -0.29289 0.2929 -0.76777 0 -1.06066s-0.7677 -0.29289 -1.0606 0l-6.4697 6.46963 -2.46966 -2.4696Z" fill="currentColor" stroke-width="1"></path>
</svg>