<svg width="20" height="20" viewBox="0 0 20 20" fill="none" xmlns="http://www.w3.org/2000/svg">
<path d="M7.19016 10.5613H6.80769C5.57125 10.5613 4.95302 10.5613 4.68951 10.1537C4.42599 9.74608 4.67707 9.17817 5.17924 8.04236L6.68894 4.62769C7.14551 3.595 7.37381 3.07865 7.81668 2.78932C8.25956 2.5 8.82162 2.5 9.94587 2.5H11.687C13.0527 2.5 13.7355 2.5 13.993 2.94613C14.2506 3.39225 13.9119 3.98823 13.2343 5.18019L12.341 6.75157C12.0042 7.34412 11.8358 7.64041 11.8381 7.88293C11.8412 8.19813 12.0088 8.4885 12.2795 8.6475C12.4879 8.76992 12.8273 8.76992 13.5062 8.76992C14.3645 8.76992 14.7936 8.76992 15.0171 8.9185C15.3075 9.1115 15.4595 9.45683 15.4062 9.80267C15.3652 10.0688 15.0765 10.388 14.4992 11.0264L9.88662 16.1269C8.98062 17.1288 8.52762 17.6297 8.22343 17.4712C7.91923 17.3126 8.06531 16.6518 8.35746 15.3302L8.92979 12.7413C9.15221 11.735 9.26346 11.2318 8.99596 10.8966C8.72846 10.5613 8.21568 10.5613 7.19016 10.5613Z" fill="#FFD700"/>
</svg>
