<svg width="20" height="20" viewBox="0 0 20 20" fill="none" xmlns="http://www.w3.org/2000/svg">
<path d="M9.99996 15.8332V4.1665C9.99996 2.7858 8.88071 1.6665 7.49996 1.6665C6.11925 1.6665 4.99996 2.7858 4.99996 4.1665C4.99996 4.62674 4.62686 4.99984 4.16663 4.99984C2.78592 4.99984 1.66663 6.11913 1.66663 7.49984C1.66663 8.88059 2.78592 9.99984 4.16663 9.99984C2.78592 9.99984 1.66663 11.1191 1.66663 12.4998C1.66663 13.8806 2.78592 14.9998 4.16663 14.9998C4.62686 14.9998 4.99996 15.3729 4.99996 15.8332C4.99996 17.2139 6.11925 18.3332 7.49996 18.3332C8.88071 18.3332 9.99996 17.2139 9.99996 15.8332Z" stroke="#FFA07A" stroke-width="1.25" stroke-linejoin="round"/>
<path d="M10 15.8332V4.1665C10 2.7858 11.1192 1.6665 12.5 1.6665C13.8807 1.6665 15 2.7858 15 4.1665C15 4.62674 15.3731 4.99984 15.8333 4.99984C17.2141 4.99984 18.3333 6.11913 18.3333 7.49984C18.3333 8.88059 17.2141 9.99984 15.8333 9.99984C17.2141 9.99984 18.3333 11.1191 18.3333 12.4998C18.3333 13.8806 17.2141 14.9998 15.8333 14.9998C15.3731 14.9998 15 15.3729 15 15.8332C15 17.2139 13.8807 18.3332 12.5 18.3332C11.1192 18.3332 10 17.2139 10 15.8332Z" fill="#FFA07A" stroke="#FFA07A" stroke-width="1.25" stroke-linejoin="round"/>
</svg>
