<svg width="20" height="20" viewBox="0 0 20 20" fill="none" xmlns="http://www.w3.org/2000/svg">
<path d="M16.4556 9.69785C16.1556 8.72285 15.5556 7.82285 14.8806 7.07285C14.8056 6.99785 14.8056 6.99785 14.7306 6.92285C14.3556 6.69785 13.9056 6.84785 13.6806 7.22285C13.6806 7.22285 13.6806 7.22285 13.6806 7.29785C13.4556 7.82285 13.0806 8.27285 12.6306 8.64785C12.7056 8.27285 12.7056 7.89785 12.7056 7.52285C12.7056 5.19785 11.4306 3.02285 9.4056 1.82285C8.9556 1.59785 8.5056 1.67285 8.3556 2.04785C8.2806 2.12285 8.2056 2.27285 8.2056 2.34785C8.1306 3.77285 7.4556 5.12285 6.3306 6.02285L6.1806 6.24785C5.5806 6.62285 5.1306 7.07285 4.6806 7.67285C2.3556 10.5979 2.8806 14.7979 5.8056 17.1229C6.3306 17.4979 6.8556 17.8729 7.4556 18.0979C7.8306 18.2479 8.2806 18.0979 8.4306 17.7229C8.4306 17.6479 8.5056 17.5729 8.5056 17.4229C8.5056 17.3479 8.5056 17.2729 8.5056 17.1979C8.3556 16.5979 8.2806 15.9229 8.3556 15.2479C9.0306 16.5979 10.2306 17.6479 11.5806 18.2479C11.7306 18.3229 11.9556 18.3229 12.1056 18.2479C15.6306 17.0479 17.5806 13.2979 16.4556 9.69785Z" fill="#4682B4"/>
</svg>
