<svg width="20" height="20" viewBox="0 0 20 20" fill="none" xmlns="http://www.w3.org/2000/svg">
<path d="M15.5907 2.91262C14.0137 2.12802 12.0841 1.6665 10 1.6665C7.91592 1.6665 5.98625 2.12802 4.4093 2.91262C3.63598 3.29739 3.24932 3.48977 2.87467 4.09465C2.5 4.69955 2.5 5.28524 2.5 6.45662V9.36409C2.5 14.1003 6.2853 16.7335 8.4775 17.8613C9.08892 18.1759 9.39458 18.3332 10 18.3332C10.6054 18.3332 10.9111 18.1759 11.5224 17.8613C13.7147 16.7335 17.5 14.1003 17.5 9.36409V6.45662C17.5 5.28525 17.5 4.69955 17.1253 4.09465C16.7507 3.48976 16.364 3.29739 15.5907 2.91262Z" fill="#3CB371"/>
</svg>
